<svg  viewBox="0 0 204 49" fill="none" xmlns="http://www.w3.org/2000/svg">
<path d="M27.8995 14.7617H22.8343C21.5559 14.7617 20.9418 15.3259 20.9418 16.5531V31.9884L10.6327 16.1192C9.91626 15.0186 9.45658 14.8138 8.02374 14.7617H3.03658C1.70609 14.7617 1.09375 15.3259 1.09375 16.5531V45.8632C1.09375 47.0904 1.70609 47.6546 3.03658 47.6546H8.1018C9.43056 47.6546 10.0446 47.0904 10.0446 45.8632V30.5043L20.4041 46.2971C21.1725 47.4497 21.5819 47.6546 23.013 47.6546H27.9256C29.2543 47.6546 29.8684 47.0904 29.8684 45.8632V16.5531C29.8164 15.3259 29.204 14.7617 27.8995 14.7617Z" fill="black"/>
<path d="M5.57695 11.435C8.65702 11.435 11.1539 8.93643 11.1539 5.85424C11.1539 2.77205 8.65702 0.273438 5.57695 0.273438C2.49689 0.273438 0 2.77205 0 5.85424C0 8.93643 2.49689 11.435 5.57695 11.435Z" fill="black"/>
<path d="M63.2463 25.7783C64.7208 23.8897 66.6116 22.8863 69.1477 22.8863C73.7497 22.8863 76.5217 26.0734 76.5217 30.2655V40.2432C76.5807 40.7154 76.2858 40.9514 75.814 40.9514H74.2216C73.7497 40.9514 73.4548 40.7154 73.5138 40.2432V30.3245C73.5138 27.9637 71.5658 25.9553 69.0887 25.9553C66.6688 25.9553 64.7225 27.9047 64.7225 30.0884V40.2432C64.7815 40.7154 64.4866 40.9514 64.0148 40.9514H62.4206C61.9488 40.9514 61.7129 40.7154 61.7129 40.2432V30.2655C61.7129 27.9047 59.7666 25.9553 57.3467 25.9553C54.9876 25.9553 52.9806 27.8457 52.9806 30.0884V40.3022C53.0396 40.7744 52.7447 41.0105 52.2139 41.0105H50.6804C50.2086 41.0105 49.9137 40.7744 49.9137 40.3022V23.9504C49.8547 23.4783 50.1496 23.1832 50.6804 23.1832H52.1549C52.5677 23.1832 52.7447 23.3602 52.7447 23.7143V24.9537C53.985 23.6553 55.5184 22.9471 57.3467 22.9471C59.8256 22.8881 61.7719 23.8914 63.2463 25.78V25.7783ZM78.9416 32.0951C78.9416 27.0784 83.0111 22.8863 88.1457 22.8863C90.6228 22.8863 92.7461 23.8897 94.5172 25.8963V23.8897C94.5172 23.4175 94.7531 23.2404 95.2249 23.2404H96.6404C97.1122 23.2404 97.3481 23.4765 97.3481 24.0077V40.3613C97.3481 40.8334 97.1122 41.0695 96.6404 41.0695H95.2249C94.7531 41.0695 94.5172 40.8334 94.5172 40.4203V38.4136C92.8051 40.3613 90.6818 41.3646 88.203 41.3646C83.0111 41.2465 78.9399 37.1152 78.9399 32.0951H78.9416ZM94.2813 32.0951C94.2813 28.6129 91.5665 25.9553 88.085 25.9553C84.7232 25.9553 82.0085 28.672 82.0085 32.0951C82.0085 35.579 84.7232 38.2366 88.1457 38.2366C88.9517 38.237 89.7499 38.0785 90.4946 37.77C91.2394 37.4615 91.916 37.0091 92.4858 36.4387C93.0557 35.8683 93.5076 35.191 93.8156 34.4457C94.1237 33.7004 94.2819 32.9016 94.2813 32.0951V32.0951ZM103.367 38.3546V47.5061C103.426 47.9782 103.132 48.2733 102.658 48.2733H101.066C100.594 48.2733 100.299 48.0372 100.299 47.5061V23.8897C100.299 23.4175 100.535 23.1224 101.066 23.1224H102.54C103.014 23.0634 103.308 23.3585 103.308 23.7716V25.7193C105.019 23.7716 107.142 22.8273 109.562 22.8273C114.636 22.8273 118.766 27.0177 118.766 32.0361C118.766 37.0544 114.695 41.2465 109.562 41.2465C107.083 41.2465 105.017 40.3022 103.367 38.3546V38.3546ZM109.503 25.9553C106.139 25.9553 103.426 28.672 103.426 32.0951C103.426 35.579 106.139 38.2366 109.562 38.2366C113.043 38.2366 115.697 35.5199 115.697 32.0951C115.697 28.672 112.984 25.9553 109.503 25.9553V25.9553ZM123.958 38.3546V47.5061C124.017 47.9782 123.722 48.2733 123.25 48.2733H121.656C121.184 48.2733 120.889 48.0372 120.889 47.5061V23.8897C120.889 23.4175 121.125 23.1224 121.656 23.1224H123.13C123.604 23.0634 123.899 23.3585 123.899 23.7716V25.7193C125.609 23.7716 127.733 22.8273 130.152 22.8273C135.226 22.8273 139.357 27.0177 139.357 32.0361C139.357 37.0544 135.285 41.2465 130.152 41.2465C127.675 41.2465 125.668 40.3022 123.958 38.3546V38.3546ZM130.093 25.9553C126.73 25.9553 124.017 28.672 124.017 32.0951C124.017 35.579 126.73 38.2366 130.152 38.2366C133.634 38.2366 136.288 35.5199 136.288 32.0951C136.288 28.672 133.575 25.9553 130.095 25.9553H130.093ZM157.588 33.2182H144.37C144.665 36.1691 147.379 38.4136 150.623 38.4136C152.393 38.4136 153.928 38.0005 155.284 36.9954C155.579 36.8184 155.874 36.7003 155.933 36.7003C156.169 36.7003 156.346 36.8184 156.523 37.1152L157.113 38.1185C157.232 38.2956 157.291 38.4136 157.291 38.5317C157.291 38.7677 157.114 39.0038 156.701 39.2989C154.812 40.5973 152.689 41.3056 150.446 41.3056C145.019 41.3056 141.124 37.2923 141.124 32.0951C141.124 26.9587 145.136 22.8863 150.151 22.8863C155.107 22.8863 158.353 26.5455 158.353 31.8607C158.353 32.4509 158.353 33.2182 157.586 33.2182H157.588ZM144.371 30.8574H155.286C154.991 27.6096 152.986 25.6602 150.094 25.6602C148.655 25.6209 147.256 26.1394 146.19 27.1075C145.123 28.0756 144.472 29.4184 144.371 30.8557V30.8574ZM160.006 32.0951C160.006 27.0784 164.077 22.8863 169.21 22.8863C171.689 22.8863 173.694 23.8306 175.346 25.7783V16.8039C175.287 16.3317 175.582 16.0366 176.053 16.0366H177.648C178.119 16.0366 178.414 16.2727 178.414 16.8039V40.3022C178.414 40.7744 178.178 41.0105 177.648 41.0105H176.173C175.7 41.0695 175.405 40.7744 175.405 40.3613V38.3546C173.635 40.3022 171.571 41.3056 169.151 41.3056C164.077 41.2465 160.006 37.1152 160.006 32.0951ZM175.288 32.0951C175.288 28.6129 172.574 25.9553 169.092 25.9553C165.729 25.9553 163.016 28.672 163.016 32.0951C163.016 35.579 165.729 38.2366 169.151 38.2366C169.959 38.2421 170.759 38.087 171.506 37.7803C172.253 37.4736 172.932 37.0214 173.503 36.45C174.073 35.8786 174.525 35.1993 174.831 34.4517C175.138 33.7041 175.292 32.9031 175.287 32.0951H175.288ZM181.896 19.6976C181.891 19.4791 181.93 19.2619 182.011 19.059C182.092 18.8562 182.213 18.6719 182.368 18.5174C182.522 18.3629 182.706 18.2413 182.909 18.1601C183.112 18.0789 183.329 18.0398 183.547 18.045C183.764 18.0446 183.979 18.087 184.18 18.1699C184.38 18.2528 184.562 18.3745 184.716 18.528C184.869 18.6816 184.991 18.8639 185.074 19.0646C185.157 19.2653 185.199 19.4804 185.199 19.6976C185.204 19.916 185.165 20.1332 185.084 20.3361C185.002 20.539 184.881 20.7232 184.727 20.8777C184.572 21.0322 184.388 21.1538 184.185 21.235C183.983 21.3162 183.765 21.3553 183.547 21.3501C182.604 21.4091 181.896 20.7009 181.896 19.6976ZM182.014 40.2432V23.8897C182.014 23.4175 182.25 23.1224 182.721 23.1224H184.314C184.786 23.1224 185.081 23.3585 185.022 23.8897V40.2432C185.081 40.7154 184.786 40.9514 184.314 40.9514H182.721C182.25 40.9514 182.014 40.7154 182.014 40.2432ZM191.336 23.7126V24.893C192.633 23.5355 194.167 22.8863 195.995 22.8863C200.54 22.8863 203.312 26.0144 203.312 30.2065V40.2432C203.371 40.7154 203.076 40.9514 202.604 40.9514H201.012C200.538 40.9514 200.302 40.7154 200.302 40.2432V30.2655C200.302 27.9047 198.356 25.9553 195.936 25.9553C193.577 25.9553 191.572 27.8457 191.572 30.0884V40.3022C191.631 40.7744 191.336 41.0105 190.803 41.0105H189.211C188.739 41.0105 188.444 40.7744 188.444 40.3022V23.8897C188.385 23.4175 188.68 23.1814 189.211 23.1814H190.685C191.098 23.1814 191.336 23.3585 191.336 23.7126V23.7126Z" fill="black"/>
</svg>
